<svg xmlns="http://www.w3.org/2000/svg" viewBox="0 0 1200 800">
  <defs>
    <linearGradient id="bgGradient" x1="0%" y1="0%" x2="100%" y2="100%">
      <stop offset="0%" style="stop-color:#0f172a;stop-opacity:1" />
      <stop offset="50%" style="stop-color:#1a1f35;stop-opacity:1" />
      <stop offset="100%" style="stop-color:#2d1b69;stop-opacity:1" />
    </linearGradient>
    <filter id="glow">
      <feGaussianBlur stdDeviation="4" result="coloredBlur"/>
      <feMerge>
        <feMergeNode in="coloredBlur"/>
        <feMergeNode in="SourceGraphic"/>
      </feMerge>
    </filter>
  </defs>
  
  <!-- Background -->
  <rect width="1200" height="800" fill="url(#bgGradient)"/>
  
  <!-- Left branch system -->
  <g opacity="0.3" filter="url(#glow)">
    <!-- Main trunk left -->
    <path d="M 100 800 Q 150 600 200 400 Q 250 200 280 100" 
          stroke="#8b5cf6" stroke-width="8" fill="none" stroke-linecap="round"/>
    
    <!-- Left branches -->
    <path d="M 150 600 Q 100 550 50 500" 
          stroke="#6366f1" stroke-width="5" fill="none" stroke-linecap="round"/>
    <path d="M 150 600 Q 120 560 90 520" 
          stroke="#6366f1" stroke-width="4" fill="none" stroke-linecap="round"/>
    <path d="M 200 400 Q 140 380 80 360" 
          stroke="#6366f1" stroke-width="5" fill="none" stroke-linecap="round"/>
    <path d="M 200 400 Q 160 370 120 350" 
          stroke="#6366f1" stroke-width="4" fill="none" stroke-linecap="round"/>
    <path d="M 250 200 Q 180 190 120 180" 
          stroke="#8b5cf6" stroke-width="5" fill="none" stroke-linecap="round"/>
    <path d="M 250 200 Q 200 185 150 170" 
          stroke="#8b5cf6" stroke-width="4" fill="none" stroke-linecap="round"/>
  </g>
  
  <!-- Right branch system -->
  <g opacity="0.3" filter="url(#glow)">
    <!-- Main trunk right -->
    <path d="M 1100 800 Q 1050 600 1000 400 Q 950 200 920 100" 
          stroke="#8b5cf6" stroke-width="8" fill="none" stroke-linecap="round"/>
    
    <!-- Right branches -->
    <path d="M 1050 600 Q 1100 550 1150 500" 
          stroke="#6366f1" stroke-width="5" fill="none" stroke-linecap="round"/>
    <path d="M 1050 600 Q 1080 560 1110 520" 
          stroke="#6366f1" stroke-width="4" fill="none" stroke-linecap="round"/>
    <path d="M 1000 400 Q 1060 380 1120 360" 
          stroke="#6366f1" stroke-width="5" fill="none" stroke-linecap="round"/>
    <path d="M 1000 400 Q 1040 370 1080 350" 
          stroke="#6366f1" stroke-width="4" fill="none" stroke-linecap="round"/>
    <path d="M 950 200 Q 1020 190 1080 180" 
          stroke="#8b5cf6" stroke-width="5" fill="none" stroke-linecap="round"/>
    <path d="M 950 200 Q 1000 185 1050 170" 
          stroke="#8b5cf6" stroke-width="4" fill="none" stroke-linecap="round"/>
  </g>
  
  <!-- Center accent lines -->
  <g opacity="0.15" filter="url(#glow)">
    <path d="M 600 800 Q 550 650 500 500 Q 480 350 500 200" 
          stroke="#6366f1" stroke-width="6" fill="none" stroke-linecap="round"/>
    <path d="M 600 800 Q 650 650 700 500 Q 720 350 700 200" 
          stroke="#6366f1" stroke-width="6" fill="none" stroke-linecap="round"/>
  </g>
  
  <!-- Decorative dots -->
  <g opacity="0.4" fill="#8b5cf6">
    <circle cx="280" cy="100" r="3"/>
    <circle cx="920" cy="100" r="3"/>
    <circle cx="50" cy="500" r="2"/>
    <circle cx="1150" cy="500" r="2"/>
    <circle cx="120" cy="180" r="2"/>
    <circle cx="1050" cy="170" r="2"/>
  </g>
</svg>
